<svg width="48" height="48" viewBox="0 0 48 48" fill="none" xmlns="http://www.w3.org/2000/svg">
<rect width="48" height="48" fill="#323238"/>
<path d="M33.1429 12H14.8571C13.2817 12 12 13.2817 12 14.8571V33.1429C12 34.7183 13.2817 36 14.8571 36H33.1429C34.7183 36 36 34.7183 36 33.1429V14.8571C36 13.2817 34.7183 12 33.1429 12ZM30.8606 22.4703C30.7309 22.4823 30.5994 22.4903 30.4663 22.4903C28.9674 22.4903 27.6503 21.7194 26.884 20.5543C26.884 23.6109 26.884 27.0886 26.884 27.1469C26.884 29.8377 24.7023 32.0194 22.0114 32.0194C19.3206 32.0194 17.1389 29.8377 17.1389 27.1469C17.1389 24.456 19.3206 22.2743 22.0114 22.2743C22.1131 22.2743 22.2126 22.2834 22.3126 22.2897V24.6909C22.2126 24.6789 22.1143 24.6606 22.0114 24.6606C20.6377 24.6606 19.5246 25.7737 19.5246 27.1474C19.5246 28.5211 20.6377 29.6343 22.0114 29.6343C23.3851 29.6343 24.5983 28.552 24.5983 27.1783C24.5983 27.124 24.6223 15.9817 24.6223 15.9817H26.9171C27.1331 18.0337 28.7897 19.6531 30.8606 19.8017V22.4703Z" fill="white"/>
</svg>
